<svg width="25" height="25" viewBox="0 0 25 25" fill="none" xmlns="http://www.w3.org/2000/svg">
<path d="M19.7671 4.62592C19.4325 4.62592 19.1602 4.89823 19.1602 5.23285C19.1602 5.56747 19.4325 5.83978 19.7671 5.83978C20.1018 5.83978 20.374 5.56752 20.374 5.23285C20.374 4.89818 20.1018 4.62592 19.7671 4.62592Z" fill="#962E93"/>
<path d="M12.5 7.11932C9.53315 7.11932 7.11938 9.53309 7.11938 12.5C7.11938 15.4669 9.53315 17.8807 12.5 17.8807C15.467 17.8807 17.8808 15.4669 17.8808 12.5C17.8808 9.53314 15.467 7.11932 12.5 7.11932Z" fill="#962E93"/>
<path d="M18.1466 0H6.85337C3.07441 0 0 3.07441 0 6.85342V18.1466C0 21.9256 3.07441 25 6.85337 25H18.1466C21.9256 25 25 21.9256 25 18.1466V6.85342C25 3.07441 21.9256 0 18.1466 0ZM12.5 19.357C8.71899 19.357 5.64302 16.281 5.64302 12.5C5.64302 8.71899 8.71904 5.64307 12.5 5.64307C16.281 5.64307 19.357 8.71904 19.357 12.5C19.357 16.281 16.281 19.357 12.5 19.357ZM19.7671 7.31621C18.6184 7.31621 17.6838 6.38164 17.6838 5.23291C17.6838 4.08418 18.6184 3.14956 19.7671 3.14956C20.9159 3.14956 21.8504 4.08413 21.8504 5.23286C21.8504 6.38159 20.9159 7.31621 19.7671 7.31621Z" fill="#962E93"/>
</svg>
